<svg width="104" height="133" viewBox="0 0 104 133" fill="none" xmlns="http://www.w3.org/2000/svg">
<path d="M52 66.5C52 54.2579 63.6382 44.3334 77.9948 44.3334C92.3511 44.3334 103.99 54.2579 103.99 66.5C103.99 78.7425 92.3511 88.6667 77.9948 88.6667C63.6382 88.6667 52 78.7425 52 66.5Z" fill="#1ABCFE"/>
<path d="M0.0104065 110.833C0.0104065 98.5912 11.6486 88.6666 26.0052 88.6666H52V110.833C52 123.076 40.3619 133 26.0052 133C11.6486 133 0.0104065 123.076 0.0104065 110.833Z" fill="#0ACF83"/>
<path d="M52 0.000366211V44.3334H77.9948C92.3515 44.3334 103.99 34.4091 103.99 22.1667C103.99 9.92431 92.3515 0.000366211 77.9948 0.000366211H52Z" fill="#FF7262"/>
<path d="M0.0104065 22.1667C0.0104065 34.4091 11.6486 44.3333 26.0052 44.3333H52V0H26.0052C11.6486 0 0.0104065 9.92457 0.0104065 22.1667Z" fill="#F24E1E"/>
<path d="M0.0104065 66.5C0.0104065 78.7425 11.6486 88.6667 26.0052 88.6667H52V44.3334H26.0052C11.6486 44.3334 0.0104065 54.2579 0.0104065 66.5Z" fill="#A259FF"/>
</svg>
