<svg width="115" height="136" viewBox="0 0 115 136" fill="none" xmlns="http://www.w3.org/2000/svg">
<path d="M18.7602 59.4724C14.8974 61.3395 4.67362 69.7444 2.70449 72.2347C0.6595 74.7249 0.0538121 70.834 2.17428 64.3749C3.84001 59.161 8.08169 52.0791 15.2005 46.0094C19.3656 42.5074 28.5297 37.4493 34.1337 34.4918C35.27 33.8691 49.9623 27.4879 63.0643 24.2973C64.2006 23.986 61.7013 26.2428 61.3224 27.4879C59.3532 33.4022 20.0471 58.7717 20.0471 58.7717L18.7602 59.4724ZM74.1214 130.833C74.8029 135.036 74.1973 135.347 69.9563 135.892C65.715 136.437 62.61 134.802 61.4741 133.713C60.3378 132.623 60.111 130.211 61.2469 128.032C61.9288 126.631 62.6103 126.164 62.9892 124.452C63.3677 122.818 63.6708 122.429 63.9734 121.806C64.2761 121.261 64.3523 120.716 64.4278 116.903C64.5036 113.091 64.4278 105.931 64.8067 102.896C65.1855 99.7834 78.2876 104.297 78.2876 104.297C78.2876 104.297 75.1822 112.234 74.3493 114.18C73.5161 116.126 73.5919 119.861 73.5919 120.639C73.5919 121.417 73.2893 122.973 73.0617 123.051C72.8345 123.129 73.8191 125.152 73.3644 126.32C73.0614 127.409 74.0459 130.211 74.1214 130.833ZM79.1201 11.846C78.6654 8.88891 79.1201 3.05181 79.7258 2.11844C81.6194 -0.527701 91.6161 -0.838697 93.7369 2.27394C94.6456 3.67457 94.5698 6.94308 94.4185 9.0444C94.2671 11.1453 93.7369 15.659 93.6611 17.1379C93.5856 18.2276 82.604 19.9392 80.1805 16.9821C79.4986 16.2042 79.1201 11.846 79.1201 11.846ZM101.386 123.285C106.006 126.709 109.565 127.331 111.913 128.577C114.26 129.822 113.655 132.234 109.716 132.935C106.536 133.557 101.537 132.312 98.205 132.312C94.8728 132.312 87.4506 132.701 85.4815 131.301C83.2097 129.667 84.1939 126.631 84.1939 126.631C84.7999 124.919 86.3144 121.106 85.86 117.993C85.4056 114.88 84.7996 113.168 83.6637 110.289C82.5278 107.41 81.6949 100.328 82.7553 99.9389C83.8158 99.5496 83.5124 99.9389 84.8758 100.25C86.2389 100.561 87.7537 101.028 90.7074 101.028C93.6611 101.028 96.9174 100.561 98.0537 100.328C99.1896 100.094 100.098 99.8606 99.7194 102.273C99.3409 104.686 98.205 109.199 98.1292 112.701C98.0537 116.203 98.0537 120.25 98.2809 120.95C98.5077 121.651 100.174 122.429 101.386 123.285Z" fill="#010101"/>
<path d="M85.1788 19.6283C76.8482 27.0215 60.7166 29.0445 36.7851 38.5387C30.6505 40.951 14.2921 48.1883 10.3538 55.737C23.6072 47.8773 28.53 58.6942 29.5901 69.8224C30.5743 80.2503 35.6488 85.6981 48.675 85.3864C62.0801 85.0754 66.1697 93.0906 69.8804 102.507C77.075 66.476 88.5868 59.4724 96.0083 53.3247C111.761 40.1727 92.3734 16.9821 85.1788 19.6283Z" fill="#8AC640"/>
<path d="M85.1788 19.6283C65.1851 26.7877 45.4183 28.5776 22.1683 43.2858C16.6397 46.7877 4.9766 54.725 2.70444 69.9004C11.1863 60.2503 30.8015 48.1108 54.8092 40.4066C66.9267 36.5153 75.7878 33.9475 86.5419 29.6673C85.7848 24.6864 85.7848 22.7409 85.1788 19.6283Z" fill="#8AC640"/>
<path d="M110.701 62.2736C110.701 62.2736 109.262 67.332 106.384 68.9665C106.384 68.9665 104.264 69.7447 100.023 67.3324C98.811 66.6321 97.9023 64.2198 97.9778 63.4411C98.0537 61.5732 99.1896 60.7174 99.1896 60.7174C99.1896 60.7174 100.402 58.6161 101.84 58.694C103.28 58.7716 105.703 59.005 106.46 58.3047C107.142 57.5265 110.853 59.7054 110.701 62.2736ZM79.8016 13.3245C79.8016 13.3245 79.4989 17.2938 78.9687 19.7836C78.8929 20.2509 76.6211 20.484 74.9546 21.1846C78.1355 30.5229 97.2963 30.445 99.7956 25.8538C98.5839 24.998 96.1604 23.6749 95.0245 23.208C93.8882 22.7408 93.964 22.8187 93.8882 20.6398C93.8127 18.4606 93.661 14.4142 93.5093 13.3245C93.358 12.2349 81.619 12.2349 79.8016 13.3245Z" fill="#010101"/>
<path d="M80.559 13.3247C80.559 13.3247 80.559 15.5815 80.3318 17.7604C80.2564 18.7721 80.1805 19.3944 80.0292 20.1727C79.9533 20.64 82.604 22.5071 83.3614 26.6318C86.9966 34.9584 95.4034 30.8341 98.887 26.8652C97.6752 26.009 95.7061 24.8418 93.4343 23.9081C92.298 23.4408 92.8282 22.4295 92.7527 20.2506C92.6769 18.0718 92.3738 14.8808 92.2225 13.7136C92.0704 12.5464 82.3768 12.235 80.559 13.3247Z" fill="#F0EFEF"/>
<path d="M79.8016 13.3245C79.8016 13.3245 79.7258 14.7256 79.499 16.3596C80.4832 17.3709 81.7708 18.7719 82.7557 19.6281C83.4372 20.2509 85.103 20.173 86.6181 20.173C87.9812 20.173 89.1929 20.3285 89.7232 20.0175C90.9353 19.3947 92.6769 17.8386 93.6614 16.671C93.586 15.2704 93.5101 13.9473 93.4346 13.3245C93.358 12.2349 81.6191 12.2349 79.8016 13.3245Z" fill="#010101"/>
<path d="M86.6935 19.2388C85.7844 19.2388 84.724 19.1613 83.8912 19.0054C83.5123 18.9278 83.1338 18.6944 82.8307 18.5385C82.3005 18.1492 81.7703 17.6827 81.165 17.2154C79.9529 16.2817 79.8774 15.7369 79.8774 15.5038C80.4076 10.6008 79.7257 6.47652 79.7257 6.47652C79.7257 6.47652 79.1955 4.3752 82.0733 3.83038C84.9512 3.28557 86.6932 3.20801 86.6932 3.20801C86.6932 3.20801 88.511 3.20801 91.313 3.83038C94.1908 4.3752 93.6606 6.47652 93.6606 6.47652C93.6606 6.47652 92.9791 10.6008 93.5093 15.5038C93.5093 15.7369 93.4338 16.2817 92.2217 17.2154C91.1613 17.9937 90.3284 18.8495 89.4955 19.0054C88.6623 19.1613 87.6019 19.2388 86.6935 19.2388Z" fill="#010101"/>
<path d="M86.6935 1.18469C81.6952 1.18469 80.7102 2.58532 79.2713 4.14183C78.9687 4.53076 79.1955 6.86553 79.7261 11.846H80.4076C80.4076 11.846 79.9529 10.445 80.0287 8.81097C80.1046 7.1769 80.4076 7.25484 80.18 6.86553C79.8774 6.39827 79.2713 5.62001 80.6348 4.84214C81.9978 4.06389 84.1183 5.46452 86.6935 5.54246C89.2683 5.46452 91.4647 4.06389 92.8277 4.84214C94.1908 5.62001 93.5851 6.39827 93.2825 6.86553C92.9794 7.3324 93.3579 7.17652 93.4338 8.81097C93.5093 10.445 93.0549 11.846 93.0549 11.846H93.7364C94.1908 6.86553 94.4938 4.68664 94.2667 4.29733C92.9791 2.58532 91.6918 1.26225 86.6935 1.18469ZM110.701 62.5071C110.701 62.5071 109.262 67.2541 106.46 68.8882C105.854 68.5772 105.93 68.1103 105.4 67.4096C105.248 67.1766 104.718 67.0203 104.491 66.7873C104.264 66.5538 104.34 66.1645 103.961 65.8535C103.658 65.5421 103.43 65.7756 103.127 65.5421C102.825 65.2311 102.749 64.8418 102.522 64.6088C102.37 64.4529 101.764 64.3753 101.613 64.2194C101.234 63.8301 97.9023 63.1298 98.0536 62.3516C98.3563 61.184 98.9623 60.3282 98.9623 60.3282C98.9623 60.3282 100.401 58.1493 101.84 58.2269C103.279 58.3048 104.642 58.6162 105.4 57.9159C106.233 57.1372 110.928 60.0168 110.701 62.5071Z" fill="#010101"/>
<path d="M100.856 28.1107C100.856 28.1107 105.627 26.9431 108.884 30.1341C112.14 33.4026 111.913 37.449 110.929 39.9392C111.761 40.9509 113.276 43.7522 112.14 47.0987C117.139 51.4564 114.942 58.1493 110.474 62.585C110.474 62.585 109.414 58.5383 105.173 58.3048C105.324 56.7487 101.235 55.5032 103.128 51.4564C100.25 50.7561 100.326 48.7327 99.8715 46.2428C99.4926 43.7522 100.856 28.1107 100.856 28.1107Z" fill="#010101"/>
<path d="M99.1137 30.2894C99.1137 30.2894 104.642 27.4102 107.899 30.6788C111.155 33.9473 110.246 37.5268 109.262 40.017C110.095 41.0284 112.064 43.9083 110.852 47.3319C110.625 48.1102 108.959 48.1102 107.747 50.1336C110.776 48.3433 112.67 48.8105 113.351 51.0669C114.412 54.5689 112.064 58.7712 110.019 61.1059C110.019 61.028 109.943 60.9501 109.943 60.8725C109.641 62.0401 109.262 64.2965 106.99 66.7868C105.854 68.0319 104.945 67.8764 103.657 67.565C102.143 67.1757 101.613 66.475 99.4922 65.3082C98.2805 64.6079 98.962 63.7517 98.962 63.0514C98.962 62.8959 99.1133 62.6621 99.3409 62.3511C99.4922 61.9617 99.9466 61.3397 100.628 60.6391C100.628 60.6391 101.613 59.2384 103.052 59.316C104.491 59.3939 106.005 59.0829 106.384 58.6936C106.384 55.9699 103.355 55.892 104.415 51.2228C104.491 50.9894 104.87 50.6001 106.081 50.4446C104.263 50.0553 103.43 49.9773 102.143 48.7326C101.234 47.8768 100.553 46.7871 100.325 45.3865C99.8711 42.9742 99.1137 30.2894 99.1137 30.2894Z" fill="#F0EFEF"/>
<path d="M83.1338 25.387C82.6794 24.7642 80.3318 21.6516 75.8633 20.4065C74.5757 20.0172 73.7428 21.1068 72.4556 21.885C72.0767 21.6516 70.4106 20.8734 69.5019 21.4178C68.5932 21.9622 67.9875 22.5074 67.0784 22.8964C66.6237 22.6629 65.4123 22.6629 64.4277 23.0519C63.4432 23.3632 61.9284 24.0635 60.4895 26.0869C59.5808 29.4334 76.5449 26.9427 76.5449 26.9427L83.1338 25.387Z" fill="#010101"/>
<path d="M83.2855 25.3868C80.8617 24.5306 81.2405 21.6514 75.8633 21.1845C74.8029 21.1066 74.1214 21.9624 73.364 22.5072C73.7429 22.8965 74.1214 23.5189 74.3486 24.1413C73.667 23.3634 72.4553 22.3513 71.2432 22.1179C70.1073 21.8849 69.3499 22.7407 68.1381 23.3634C68.3649 23.5965 68.5925 23.9858 68.8951 24.4531C67.8347 23.7527 67.0777 23.5193 65.6388 24.0637C64.6542 24.3747 62.7609 25.2309 61.322 27.3322C60.4133 30.6787 76.6204 26.9429 76.6204 26.9429L83.2855 25.3868Z" fill="#8AC640"/>
<path d="M97.5234 26.632C97.5234 26.632 97.5234 25.7758 97.4476 24.9979C97.4476 24.8424 96.8419 24.4531 96.8419 24.2976L96.6906 24.1417C96.6906 24.1417 97.9023 23.4414 98.811 23.8307C99.7952 24.1417 100.325 25.4648 100.325 25.4648C102.067 24.8424 102.219 25.5427 103.052 26.4765C104.87 26.0871 105.097 26.7875 106.233 28.4998C106.233 28.4998 104.87 28.2664 102.219 28.7329C99.6439 29.1218 97.5234 26.554 97.5234 26.632Z" fill="#010101"/>
<path d="M97.2204 26.2428C97.2204 26.2428 97.6747 25.8534 97.523 25.7755C98.3559 25.3086 99.4922 24.7642 100.022 26.2428C101.764 25.62 101.992 26.4762 102.824 27.4103C104.945 26.3986 105.096 27.6434 105.248 28.1882C104.566 28.1882 103.582 28.2661 102.219 28.4216C99.6439 28.811 97.1445 26.1648 97.2204 26.2428Z" fill="#8AC640"/>
<path d="M71.471 24.2974C71.471 24.2974 75.7878 25.8535 79.4231 25.6201C83.0583 25.3091 89.2684 24.9977 92.6006 27.0211C92.6006 27.0211 96.0087 25.7755 99.1896 26.6317C102.371 27.4876 108.202 33.0908 106.46 39.0051C106.309 39.3944 105.324 40.0168 104.188 40.4061C104.188 40.4061 104.794 43.0519 103.734 45.2308C102.673 47.3321 100.326 51.3788 100.25 56.9817C100.174 57.9155 100.023 59.8609 99.8715 60.7947C93.964 60.5616 84.8761 58.3044 75.9395 58.4603C76.015 57.449 76.0909 56.8262 76.1667 55.8146H76.3935C75.9392 53.2464 75.7878 51.9233 75.3331 49.9778C72.4552 48.1103 69.4257 45.9315 66.8512 41.8067C64.3519 37.682 71.471 24.2974 71.471 24.2974ZM100.704 66.3204C100.704 66.3204 105.4 83.5967 99.8715 90.8341C99.8715 90.8341 100.704 94.1801 98.811 97.76C98.508 99.3162 98.1291 100.717 97.9023 102.273C96.9178 108.732 95.2513 111.456 94.7969 121.806L90.2526 121.728C90.2526 121.728 89.7224 114.258 88.1321 110.289C87.2238 108.032 83.6636 104.997 83.8157 101.962C83.967 99.6275 84.4214 97.6821 88.2842 94.5691C88.5868 90.0558 84.1942 85.7752 84.8761 68.9662L100.704 66.3204Z" fill="#010101"/>
<path d="M99.3412 65.6197C100.553 73.5574 103.355 85.3083 98.2808 91.0667C98.5802 92.5269 98.6058 94.0324 98.3563 95.5025C98.205 96.4362 97.9019 97.4479 97.5234 98.5371C96.766 100.405 96.463 103.129 96.2358 104.763C95.2512 111.222 95.2512 111.534 94.7969 121.884L90.2526 121.806C90.2526 121.806 89.7223 114.335 88.1321 110.366C87.2237 108.11 85.3301 106.164 85.1788 103.129C85.0274 100.795 86.6177 96.1256 90.4046 96.2811C90.1774 86.8649 85.9361 88.7324 84.8002 69.1217L99.3412 65.6197ZM71.471 24.2974C71.471 24.2974 73.1371 24.8422 74.9546 24.9977C76.7724 25.1532 78.7415 24.9977 80.4831 24.9197C84.1183 24.6087 89.2684 24.2194 92.6764 26.2428C92.6764 26.2428 94.5697 25.6201 96.6147 25.7756C97.5234 25.8535 98.4325 26.6317 99.4926 26.9431C102.825 27.7989 106.006 33.4798 104.566 38.6162C104.415 39.0055 103.355 38.6162 102.143 39.0055C102.37 40.0951 102.522 42.5854 101.31 45.2311C100.022 47.8773 98.3563 51.3013 98.6589 57.8383C90.7069 57.449 87.1475 56.9046 79.271 56.5152C78.5894 53.6357 78.1347 50.7565 78.0592 49.2779C79.1196 48.7331 79.725 48.2666 80.5586 47.3325C78.2868 47.7218 77.3777 47.5659 76.0142 46.7876C74.6512 46.0094 72.2277 43.5191 71.0159 41.8851C70.8646 41.7292 70.0317 44.297 68.1384 44.3753C67.4565 43.3636 70.3344 40.4841 69.8042 39.3948C67.9112 35.4256 71.471 24.2974 71.471 24.2974Z" fill="#F0EFEF"/>
<path d="M99.9467 59.1605C99.9467 59.1605 100.098 61.9621 100.098 62.6624C100.098 63.4407 100.704 65.775 100.78 66.8647C99.9467 68.3432 96.3114 71.6897 89.7225 72.9348C83.2094 74.3355 74.5758 63.83 74.5758 63.83C74.803 62.8183 75.5604 59.8608 76.0906 58.3046C76.1664 58.1491 76.3178 57.7598 76.3178 57.6043C76.9997 56.5926 99.9467 59.1605 99.9467 59.1605Z" fill="#010101"/>
<path d="M98.2808 59.3945C98.2808 61.3399 98.5835 62.7409 98.811 63.986C99.1895 66.2429 99.7952 67.7214 99.7952 69.2C99.7952 73.7133 94.0395 72.935 89.1921 73.0909C82.679 74.4919 77.1505 63.986 77.1505 63.986C77.6049 62.1961 77.9079 60.1731 78.5894 58.4607C78.6649 57.5269 78.8166 56.3598 78.8921 55.8149C88.1317 55.8149 94.6448 56.3598 98.4318 56.7483C98.5835 57.6045 98.4321 59.0831 98.2808 59.3945Z" fill="#F0EFEF"/>
<path d="M91.01 69.433C91.01 69.433 86.9962 60.2502 74.9542 62.9743C72.0767 71.3009 68.2139 80.873 70.7133 91.223C68.2139 94.7249 65.3361 96.6708 65.3361 103.129C65.3361 109.589 65.6391 110.678 65.6391 110.678L74.4998 111.145C74.4998 111.145 77.3777 107.332 78.5136 103.208C78.8166 102.04 79.1197 99.9393 78.8925 97.5269C79.1951 97.0601 80.4827 95.9708 80.6344 93.8695C80.6344 93.8695 84.9512 91.5351 87.4506 85.8543C89.7986 80.7171 89.1925 76.2814 91.01 69.433Z" fill="#010101"/>
<path d="M91.01 69.433C90.7832 68.5772 87.7536 60.1727 76.5449 62.6626C69.9563 80.7171 72.3798 88.1879 73.364 91.456C68.8955 97.2924 66.8509 98.5375 67.76 110.366H73.6674C76.3935 105.931 76.9996 104.296 77.1509 98.46C77.1509 98.2265 76.3181 98.9268 75.712 99.7051C76.1667 97.2928 77.454 96.8259 78.4385 95.3473C78.8929 94.7246 79.2714 93.7908 79.2714 92.5457C84.5728 88.8882 86.5419 84.2966 87.6778 79.5496C88.5869 76.2814 89.6469 70.9116 91.01 69.433Z" fill="#F0EFEF"/>
<path d="M72.3039 56.9041C72.3039 56.9041 74.3489 56.9816 76.1667 57.6044C77.9086 58.2267 77.9086 58.6157 78.5902 59.3943C79.2717 60.173 80.9378 61.3398 80.6351 62.507C80.4834 63.1297 80.1049 63.2852 79.5747 63.83C79.3475 64.0635 77.6811 65.931 77.3026 66.1644C77.0754 66.3199 76.7723 66.5537 76.5452 66.7092L75.4093 67.4875C74.6519 67.8768 74.1217 68.1102 73.2888 68.0323C73.2888 68.0323 71.3955 67.9543 70.1834 66.6317C70.1834 66.6317 70.0321 66.0089 70.3351 65.6979C70.3351 65.6979 68.7445 64.2969 68.2901 63.3631C67.8354 62.4298 67.8354 61.1067 68.1388 60.4064C68.2901 59.7053 71.2434 57.7599 72.3039 56.9041ZM74.1975 132.623L73.9703 134.569C73.9703 134.569 73.2888 135.425 68.2146 135.347C63.0646 135.269 61.7015 133.635 61.2472 132.779L60.9445 130.756C60.9445 130.756 61.9291 129.277 62.1563 129.277C63.8224 129.433 69.5026 131.767 73.4409 132.39C73.8186 132.39 73.8941 132.545 74.1975 132.623ZM85.1787 128.654C85.1787 129.51 85.1029 129.51 85.1029 130.366C86.0116 131.067 88.2841 131.456 92.6006 131.378C98.8865 131.222 104.718 133.323 111.837 132.078L111.913 130.677L111.231 130.6L86.0116 128.498L85.1787 128.654Z" fill="#010101"/>
<path d="M90.7073 131.378H92.6006C96.6905 131.223 100.553 132.156 104.718 132.39C106.914 132.312 109.641 131.767 109.414 130.133L87.9053 128.265C86.6177 129.744 87.6019 130.989 90.7073 131.378ZM66.018 98.6157C66.6995 99.0826 71.3193 101.884 78.817 101.495C78.6653 102.973 78.7411 105.853 75.4089 110.911C73.7428 113.401 72.3035 117.76 72.0008 123.285C72.0767 124.53 72.7582 125.619 71.8495 127.254C72.1522 128.265 73.3639 130.288 73.97 131.534C74.5757 132.779 74.8787 134.18 70.8646 134.258C66.775 134.335 60.186 133.868 61.0951 130.6C61.5498 128.888 62.8371 127.098 62.9888 126.398C63.1401 125.697 63.1401 123.596 64.4273 122.195C65.5636 118.304 65.1847 114.569 64.9579 111.067C64.579 107.409 64.5032 101.573 66.018 98.6157ZM73.0613 35.192C78.4385 27.7988 73.8941 21.8849 65.2609 23.6745C61.777 24.3748 58.2935 26.8654 58.0659 31.3787C56.93 31.5342 54.3552 31.6897 53.0676 36.5147C52.0834 40.2501 51.5532 40.9504 49.8109 42.8179C48.675 44.141 49.8867 46.8647 50.7196 48.8105C53.522 55.503 62.1555 56.1254 67.9871 61.1839C69.9562 60.6391 72.0008 58.3826 72.6069 56.9041C67.6841 50.9115 68.7441 48.5771 66.775 45.4644C68.8958 44.6858 73.7428 41.6511 73.0613 35.192Z" fill="#010101"/>
<path d="M72.0009 34.7253C72.3035 34.2581 72.8337 33.2467 73.0613 32.8574C73.1372 32.7795 73.97 34.2581 74.0459 34.1805C76.0905 30.7561 76.6207 25.7756 74.2727 25.3087C73.7425 25.2308 72.7583 24.9977 71.925 24.686C70.4106 24.1411 69.0475 24.1411 66.6237 24.6084C63.2915 25.2308 59.9592 27.721 59.9592 31.3009C59.9592 31.5344 62.3065 32.2347 62.9884 35.1143C61.8522 33.4798 59.883 31.6899 57.5354 33.2464C55.036 34.8804 56.3236 38.6158 52.9914 42.5067C51.8552 43.8298 52.0069 45.3863 53.2182 48.4989C55.1874 53.4019 64.5028 56.0476 69.577 60.7168C70.7888 60.172 71.6216 58.9268 72.2277 57.9931C68.8196 54.3356 67.4562 50.9112 66.472 48.421C65.2602 45.5418 63.8968 43.9077 61.2461 41.7281C62.6096 42.2729 63.67 42.8177 64.2753 43.2846C64.9568 43.7515 65.9414 43.8294 66.8505 43.518C70.1076 42.3516 71.8496 37.6821 72.0009 34.7253Z" fill="#F0EFEF"/>
<path d="M104.945 35.9704C104.718 38.9276 102.598 37.449 101.462 36.9042C99.1895 35.8925 96.9173 35.1922 94.2667 35.1922C91.616 35.1922 88.2079 35.4256 85.2546 36.2039C81.165 37.3711 79.9529 37.2935 78.1354 36.3594C76.318 35.3477 73.1375 32.8574 73.1375 32.8574C73.1375 32.8574 73.0616 33.6357 73.819 34.6474C74.8032 35.8925 76.9999 37.449 79.9532 38.4603C81.3922 38.9276 82.5284 38.6158 83.816 38.3048C90.5563 36.5928 97.6751 36.2814 103.658 40.0168C103.961 40.1723 105.021 39.7054 105.476 39.0051C106.081 37.9938 104.945 35.9704 104.945 35.9704Z" fill="#010101"/>
<path d="M70.4865 65.6196C71.0921 66.0089 71.8495 66.2424 72.6824 66.9427C72.6824 66.9427 72.0009 66.9427 71.6982 66.6317C71.3193 66.3983 70.5619 65.698 70.4865 65.6196Z" fill="#0A1825"/>
<path d="M92.3734 3.90835C92.1462 3.20804 90.4797 1.96252 86.6177 1.96252C82.4522 1.96252 81.2405 3.28559 81.165 3.98591C81.165 4.21935 80.862 6.70999 80.7861 7.7213C80.7861 7.7213 80.7861 8.96643 80.8616 10.8339C80.9375 12.0791 81.2405 12.7794 81.3918 14.4138C81.5431 16.1254 81.9979 17.2151 82.8307 18.6161C83.2096 18.8491 83.5123 19.083 83.8912 19.1609C85.4059 19.4719 88.0566 19.5498 89.4955 19.1609C90.3284 18.9275 91.3888 17.4489 91.616 16.1258C91.9187 14.4918 92.2217 13.3242 92.2976 12.3129C92.4489 11.3016 92.5247 9.04437 92.6002 8.42161C92.8278 6.70999 92.4489 4.06385 92.3734 3.90835Z" fill="#F0EFEF"/>
<path d="M84.4213 100.094C84.4213 100.094 88.4355 101.884 98.3566 100.328C98.3566 100.328 95.5546 114.802 96.8422 122.039C96.8422 122.039 98.1294 123.907 107.672 127.487C107.672 127.487 111.913 128.576 111.762 130.756C111.762 130.756 111.913 131.223 106.763 131.067C101.614 130.911 96.7664 129.977 93.3583 129.977C89.9502 129.977 86.315 130.133 85.7093 129.121C85.0278 128.188 85.8606 125.775 86.8452 124.374C87.906 122.896 87.6026 121.806 87.5271 119.16C87.2992 112.234 82.1492 105.075 84.4213 100.094Z" fill="#010101"/>
<path d="M83.5882 101.417C83.058 102.196 83.6636 105.153 84.421 108.032C85.1784 110.911 86.8449 112.624 87.2234 117.37C87.6019 122.04 87.6778 122.662 86.3902 125.386C85.1026 128.109 84.7241 130.6 89.1922 130.677C93.6603 130.755 96.0842 130.6 100.628 131.3C105.172 132.001 106.763 132.234 109.262 131.845C111.761 131.456 112.291 130.6 111.231 129.822C110.171 129.043 105.778 128.188 103.885 126.631C102.067 125.23 96.9174 122.895 96.8419 122.273C96.6147 120.172 96.5389 112.545 96.9174 110.055C97.2963 107.564 97.8261 103.985 97.9778 103.051C98.1295 102.117 98.8865 101.183 97.5989 101.495C96.3117 101.806 91.4647 102.506 87.8295 102.273C84.1942 102.04 83.8157 101.184 83.5882 101.417Z" fill="#8AC640"/>
<path opacity="0.3" d="M86.1634 125.464C87.4506 126.086 89.3442 126.553 90.7832 126.553C90.7832 126.553 90.2526 129.122 91.0858 130.678C91.9187 132.234 85.0271 131.301 85.0271 131.301L84.7244 125.775L86.1634 125.464ZM106.233 132.156C107.445 131.767 108.278 130.366 107.293 129.044C106.233 127.721 105.324 127.487 106.687 127.41C108.051 127.332 113.049 130.444 113.049 130.444L110.474 132.857L106.233 132.156ZM83.361 104.452C85.1029 105.075 87.7536 105.23 90.0258 105.152C92.2976 105.075 95.7056 104.763 97.9023 103.985C100.098 103.207 99.1896 104.841 99.1896 104.841L97.9778 106.009C97.9778 106.009 95.1 107.176 90.4047 107.098C84.8761 107.02 83.2097 106.398 83.2097 106.398L83.361 104.452ZM83.5123 108.343C85.2546 108.966 87.9049 109.122 90.1771 109.044C92.4489 108.966 95.4785 108.966 97.6748 108.11C98.5835 107.799 98.0537 109.122 98.0537 109.122L97.6748 109.822C97.6748 109.822 94.7211 110.912 90.1013 110.833C84.5727 110.756 83.5882 110.288 83.5882 110.288L83.5123 108.343Z" fill="#010101"/>
<path d="M78.5139 53.7915C78.5139 54.3363 84.4213 57.371 87.6777 57.9938C90.9344 58.6161 97.7506 57.9938 98.8106 57.7603L98.6589 58.85C98.6589 58.85 90.5555 60.0951 84.3455 58.3831C78.135 56.6711 78.8169 56.2818 78.8169 56.2818L78.5139 53.7915Z" fill="#010101"/>
<path d="M65.8663 120.172C66.7751 120.639 70.0318 121.495 72.1523 121.028C72.4549 120.95 72.1523 115.658 72.9855 113.246C74.1973 109.9 76.1664 107.176 77.0747 101.262C73.8938 100.951 70.259 100.094 68.3653 99.4717C65.9422 107.098 66.7754 113.635 65.8663 120.172ZM70.9409 125.075C71.4711 125.23 71.8496 125.853 72.0013 125.464C72.304 124.764 71.4711 123.441 71.3952 122.507V122.429C70.7137 121.807 66.0939 121.729 66.3969 122.04C65.8667 123.052 65.0339 122.896 64.7312 124.919C64.5799 125.931 65.7916 125.075 66.9271 124.997C64.8825 126.398 62.5349 128.188 62.156 129.744C61.7016 131.923 62.459 132.546 64.7312 133.713C66.7003 134.18 69.048 134.258 70.8654 134.18C72.9104 133.791 73.2893 132.78 72.6832 131.379C71.7738 129.277 71.1681 126.554 70.9409 125.075Z" fill="#F0EFEF"/>
<path d="M71.7737 23.986C74.273 25.4645 77.7569 25.0756 79.0442 24.9977C79.3472 24.9977 82.3768 24.4528 82.5281 24.5304C82.8307 24.6083 82.8307 24.8418 82.8307 24.8418C82.8307 24.8418 81.6948 25.4641 79.12 25.6196C76.6965 25.7751 73.8187 25.6196 72.2284 24.8418C70.3348 23.986 71.7737 23.986 71.7737 23.986ZM97.5234 25.4645C97.9778 25.7755 100.931 26.9431 102.219 28.3437C103.355 29.5892 102.749 29.5113 102.522 29.1999C102.219 28.8106 99.8711 27.1765 98.9624 26.7876C98.0536 26.3987 96.9174 25.698 96.9174 25.5425C96.9174 25.387 97.5234 25.4645 97.5234 25.4645Z" fill="#010101"/>
<path d="M71.3947 57.76C73.5911 57.6045 75.8632 58.1493 77.3021 59.7054C78.0595 60.4837 79.2713 61.3395 79.12 62.1177C79.12 62.3512 78.6652 62.9739 78.2871 63.4408C78.0599 63.7518 77.3784 64.4521 77.1508 64.6859C76.8482 64.9194 75.7877 65.7756 75.5606 65.9311C75.3334 66.087 75.0304 66.4763 74.8032 66.5538C74.0462 66.9432 73.2129 66.6318 72.4555 66.2428C71.6985 65.8535 72.6072 65.7756 71.774 65.1532C69.7294 63.6746 68.5931 62.6626 69.4263 59.7834C69.5018 59.2386 70.3347 58.6158 71.3947 57.76Z" fill="#F0EFEF"/>
<path opacity="0.4" d="M52.0831 39.9391C45.2669 42.7408 27.9236 51.6126 23.0011 54.3363C27.0907 56.982 28.984 63.3632 29.5901 69.8223C29.6655 70.445 29.7414 70.9898 29.8172 71.6122C29.8927 72.157 29.9686 72.5459 30.044 72.7798C30.044 72.8577 30.044 73.0132 30.1199 73.0908C34.5884 60.5619 50.5679 47.3324 51.174 46.3207C51.4766 45.8538 50.7951 43.8304 51.8555 41.8853C53.219 39.3943 55.87 38.3047 52.0831 39.9391ZM68.2901 98.6937C71.7737 91.5343 71.8495 84.6859 71.7737 76.6703C71.7737 73.3238 74.1213 68.5767 72.91 69.8998C68.3656 75.1134 56.93 84.9193 48.675 85.4637C60.2623 85.0748 64.8062 91.067 68.2901 98.6937Z" fill="#010101"/>
<path d="M16.3363 60.9506C20.6531 57.76 42.9948 45.5425 48.372 43.8301C53.7488 42.0402 52.0827 39.9388 52.0827 39.9388C52.0827 39.9388 30.2712 49.5885 17.245 57.9155" fill="#010101"/>
<path opacity="0.4" d="M79.9529 38.4606C78.2109 37.7603 76.8478 39.8616 77.3022 41.885C77.7569 43.9084 81.8465 46.1648 81.619 53.558C81.4677 59.6282 80.1801 62.1181 80.1801 62.1181L77.3022 58.3831C77.3022 58.3831 76.8479 49.9781 75.8633 48.733C74.8791 47.4879 71.7737 45.2311 70.5619 44.0639C69.3502 42.8963 71.925 41.3402 71.7737 39.1609C71.6224 37.06 73.0613 32.8577 73.0613 32.8577L79.9529 38.4606ZM90.4801 71.6119C90.3288 77.4482 91.6164 86.0865 92.1462 90.2112C92.6764 94.3356 93.358 94.6469 92.1462 96.5148C90.9345 98.3048 89.3442 101.262 89.3442 101.262L84.1183 100.795C84.1183 100.795 88.2838 95.3473 88.5106 94.3356C88.7378 93.3243 86.3901 85.62 86.3901 85.62L90.4801 71.6119ZM80.4076 17.1379C81.468 19.5498 82.7553 20.6395 84.7999 21.3402C86.0116 21.807 90.7828 22.4298 92.6764 20.2505C93.5093 19.2388 92.9791 16.5151 92.9791 16.5151L88.6623 20.0946L82.8307 19.0054L82.1492 17.2155L80.4076 17.1379Z" fill="#010101"/>
<path d="M80.8616 22.5073C82.8308 23.8304 87.7536 25.0755 89.1167 25.309C90.4797 25.62 92.6761 23.8304 93.7365 23.3635C94.8728 22.8187 96.8419 22.5073 99.1137 24.6086C99.3409 24.8421 98.5835 25.8538 98.5835 25.8538C98.5076 25.7758 98.0533 25.7758 97.4472 25.4645C96.8415 25.1535 96.3113 24.9196 95.4026 24.9976C91.6156 25.4645 91.01 26.7875 87.6777 26.0089C84.3455 25.2303 83.5123 24.6083 80.2559 24.7638" fill="#8AC640"/>
<path d="M80.8616 22.5073C82.8308 23.8304 87.7536 25.0755 89.1167 25.309C90.4797 25.62 92.6761 23.8304 93.7365 23.3635C94.8728 22.8187 96.8419 22.5073 99.1137 24.6086C99.3409 24.8421 98.5835 25.8538 98.5835 25.8538C98.5076 25.7758 98.0533 25.7758 97.4472 25.4645C96.8415 25.1535 96.3113 24.9196 95.4026 24.9976C91.6156 25.4645 91.01 26.7875 87.6777 26.0089C84.3455 25.2303 83.5123 24.6083 80.2559 24.7638" stroke="#010101" stroke-width="10.8638" stroke-miterlimit="10" stroke-linejoin="round"/>
<path d="M80.1801 22.741C82.6794 23.8306 87.5264 24.9978 88.8895 25.3092C90.2526 25.6205 92.4489 24.2195 93.5093 23.5192C95.403 22.2741 97.8261 23.2858 98.9624 24.6089C99.7194 25.4647 100.023 26.0095 100.023 26.2429C100.023 26.5539 99.114 26.2429 99.114 26.2429C98.5838 26.0095 97.9778 25.9319 97.5238 25.6202C96.9177 25.3092 96.3117 24.8423 95.4033 24.9198C91.6164 25.3871 90.859 26.7098 87.6026 25.9315C84.3463 25.1533 83.513 24.453 80.0295 24.686" fill="#8AC640"/>
<path d="M68.4415 95.4248C68.2901 95.2693 68.5928 95.1138 68.4415 95.1138C67.4573 95.1138 66.0938 94.3356 65.336 93.2459C62.0797 88.4213 57.3082 85.2307 48.6746 85.4642C35.7239 85.7752 30.5739 80.3282 29.5897 69.9002C29.0594 64.2194 27.5447 58.6941 24.4396 55.5811L22.6218 56.7486C26.1054 59.8613 27.2416 64.9197 27.999 71.8457C29.2108 82.2736 37.39 87.0986 46.9326 87.2541C56.8538 87.4096 60.4132 89.5109 64.1239 94.6473C65.3357 96.2814 66.6991 96.8262 67.7592 97.0597L68.4415 95.4248Z" fill="#010101"/>
<path opacity="0.4" d="M103.582 45.3866C103.809 46.5538 104.415 48.8106 105.627 49.8999C106.157 50.4447 106.233 50.6002 105.778 50.6002C105.324 50.6002 101.992 50.4447 101.992 50.4447L101.083 48.8106L103.582 45.3866Z" fill="#010101"/>
</svg>
